{"asset":{"version":"2.0","generator":"babylon.js glTF exporter for 3dsmax 2019 v20200721.1"},"scene":0,"scenes":[{"nodes":[0]}],"nodes":[{"mesh":0,"translation":[0.0,0.0,-4.84287739E-08],"rotation":[0.7071068,-3.090862E-08,-3.09086161E-08,0.7071067],"scale":[1.80640686,1.80640686,1.0],"name":"对象003"}],"meshes":[{"primitives":[{"attributes":{"POSITION":1,"NORMAL":2,"TEXCOORD_0":3},"indices":0,"material":0}],"name":"对象003"}],"accessors":[{"bufferView":0,"componentType":5123,"count":1116,"type":"SCALAR","name":"accessorIndices"},{"bufferView":1,"componentType":5126,"count":1116,"max":[0.5318184,0.0221026689,0.03992653],"min":[-0.0217668023,-0.5314826,-0.960680246],"type":"VEC3","name":"accessorPositions"},{"bufferView":1,"byteOffset":13392,"componentType":5126,"count":1116,"type":"VEC3","name":"accessorNormals"},{"bufferView":2,"componentType":5126,"count":1116,"type":"VEC2","name":"accessorUVs"}],"bufferViews":[{"buffer":0,"byteLength":2232,"name":"bufferViewScalar"},{"buffer":0,"byteOffset":2232,"byteLength":26784,"byteStride":12,"name":"bufferViewFloatVec3"},{"buffer":0,"byteOffset":29016,"byteLength":8928,"byteStride":8,"name":"bufferViewFloatVec2"}],"buffers":[{"uri":"003.bin","byteLength":37944}],"materials":[{"pbrMetallicRoughness":{"baseColorTexture":{"index":0},"metallicFactor":0.0,"roughnessFactor":0.450053632},"name":"Material #284"}],"textures":[{"sampler":0,"source":0,"name":"003.jpg"}],"images":[{"uri":"./003.jpg"}],"samplers":[{"magFilter":9729,"minFilter":9987}]}